<?xml version="1.0" encoding="utf-8"?>
<svg xmlns="http://www.w3.org/2000/svg" viewBox="0 0 1061 1000">
  <path d="M1229 1014Q1229 965 1187 930Q1149 899 1095 899Q1039 899 988 923Q967 933 914.0 964.0Q861 995 776 1047Q773 1044 765.5 1037.0Q758 1030 746 1019Q844 966 913 867Q961 798 972 755Q981 703 984 675Q1194 593 1194 413Q1194 289 1081 212Q980 144 851 144Q728 144 619 217Q498 299 498 417Q498 564 614 612L617 599Q512 553 512 417Q512 304 629 227Q732 158 851 158Q976 158 1071 222Q1180 294 1180 413Q1180 501 1123 565Q1072 624 986 657Q993 557 1032 483Q1055 439 1097 400Q1131 369 1131 358Q1131 342 1121 342Q957 390 831 558Q778 629 753 684H504Q405 684 326 740Q239 803 239 899Q239 964 287 998Q330 1028 396 1028Q478 1028 558 961Q626 904 683 819Q709 779 729.0 749.0Q749 719 762 699Q839 699 884 690Q884 735 847 827Q833 862 822.0 888.5Q811 915 803 932Q798 945 766 972Q735 1000 725 1000Q675 978 645 978Q620 978 620 998Q620 1029 675 1029Q686 1029 697.5 1027.5Q709 1026 722 1024L758 1056Q545 1182 392 1182Q230 1182 118 1084Q3 984 3 822Q3 669 98 571Q194 473 347 473Q372 473 405 486V474Q372 462 347 462Q186 462 89 561Q-7 660 -7 822Q-7 989 110 1092Q222 1192 392 1192Q530 1192 700 1102Q723 1089 740.0 1080.0Q757 1071 768 1064Q800 1087 822.5 1101.5Q845 1116 859 1123Q947 1169 1046 1167Q1110 1166 1167 1122Q1229 1075 1229 1014ZM1056 383Q1057 383 1057 384Q1057 387 1018 432Q901 568 885 675Q837 684 773 684Q799 613 876 525Q892 508 913.0 487.0Q934 466 961 443Q1031 383 1056 383ZM1215 1015Q1215 1071 1157 1114Q1104 1153 1046 1153Q902 1153 786 1056Q870 1005 919.5 976.0Q969 947 986 939Q1041 913 1096 913Q1120 913 1141.5 920.5Q1163 928 1179.5 941.5Q1196 955 1205.5 973.5Q1215 992 1215 1015ZM696 1009Q676 1014 663 1014Q641 1014 641 1000Q641 994 650 994Q664 994 696 1009ZM741 701Q646 844 606 891Q496 1014 396 1014Q286 1014 286 899Q286 812 372 753Q448 701 540 701Z" />
</svg>
