<?xml version="1.0" encoding="utf-8"?>
<svg xmlns="http://www.w3.org/2000/svg" viewBox="0 0 1064 1000">
  <path d="M1304 456Q1304 405 1228 372Q1165 346 1109 346Q1054 346 1011 359Q996 365 981.0 371.0Q966 377 950 382Q926 371 908.0 363.0Q890 355 878 350Q824 330 748 330Q652 330 586 356Q570 363 488 410Q418 381 364 381Q219 381 114 491Q10 601 10 745Q10 873 94 949Q177 1025 307 1025Q460 1025 564 960Q651 904 732 778Q755 741 782 649Q795 604 807.0 573.5Q819 543 832 526Q906 425 944 406Q984 428 984 526Q984 591 904 666Q879 644 856 644Q824 644 824 666Q824 678 837.5 686.5Q851 695 864 695Q872 695 878.5 694.5Q885 694 890 693Q896 725 896 754Q896 835 863 865Q790 865 728 885Q638 915 638 978Q638 1023 706 1025Q749 1026 789.0 1015.0Q829 1004 863.0 982.5Q897 961 923.0 929.5Q949 898 964 858Q1031 830 1086 782L1078 774Q1023 823 970 841Q970 746 922 687Q953 670 974.0 653.5Q995 637 1008 623Q1045 583 1045 526Q1045 487 1018 449Q1004 433 992.0 419.5Q980 406 969 393Q1053 358 1109 358Q1161 358 1218 381Q1289 411 1289 456Q1289 479 1260 497Q1249 504 1236.5 509.0Q1224 514 1210 516L1220 526Q1250 521 1275 504Q1304 483 1304 456ZM887 676Q875 680 864 680Q844 680 844 666Q844 657 856 657Q871 657 887 676ZM629 648Q629 665 614 699Q578 732 530 732Q467 732 432.0 692.0Q397 652 397 589Q397 538 425 495Q433 482 449.0 464.5Q465 447 488 425Q629 503 629 648ZM860 880 808 948Q749 1009 692 1007Q650 1006 650 978Q650 925 725 899Q786 879 860 880ZM931 393Q848 426 779 503Q714 575 680 663Q663 707 654.0 730.5Q645 754 643 758Q607 836 556.5 888.5Q506 941 443 975Q372 1012 307 1012Q183 1012 104 942Q21 868 21 745Q21 606 124 499Q227 391 364 391Q424 391 477 420Q432 464 424 474Q386 526 386 588Q386 656 423 699Q463 745 530 745Q554 745 601 730Q581 791 520 822Q473 847 439 842V856Q471 856 500.0 845.5Q529 835 553.5 816.0Q578 797 596.5 771.0Q615 745 626 714Q681 659 680 612Q680 588 672 569Q671 568 667.5 562.0Q664 556 657 543L646 546Q668 592 667 613Q665 634 656 649L636 683Q638 666 639.5 657.5Q641 649 641 648Q641 507 498 418Q559 377 604 361Q664 340 748 340Q848 340 931 393Z" />
</svg>
