<?xml version="1.0" encoding="utf-8"?>
<svg xmlns="http://www.w3.org/2000/svg" viewBox="0 0 940 1000">
  <path d="M1200 435Q1200 396 1140 396Q1065 396 984 436Q907 474 867 521Q833 561 811.0 592.0Q789 623 778 645Q726 656 683.0 664.0Q640 672 606 678Q613 650 617.0 634.5Q621 619 622 617Q662 530 694 498Q742 466 769 455Q815 485 841 485Q877 485 877 458Q877 432 821 432Q796 432 768 438Q737 417 683 362Q641 318 605 298Q556 270 492 270Q419 270 352 313Q283 356 249 419Q228 457 231 525Q165 539 111 576Q2 649 2 786Q2 881 60 943Q78 963 129 995Q103 1078 103 1128Q103 1247 175 1334Q252 1426 369 1426Q518 1426 562 1288L552 1291Q508 1417 369 1417Q274 1417 200 1346Q114 1263 114 1128Q114 1059 139 1000Q167 1018 208 1018Q376 1018 496 890Q547 836 569 779Q580 750 589.0 728.0Q598 706 603 691Q656 680 698.5 672.0Q741 664 775 657Q737 754 712.5 812.0Q688 870 678 890Q663 918 646 937Q644 939 630.5 950.5Q617 962 592 983Q557 963 538 963Q505 963 505 991Q505 1018 537 1018Q562 1018 594 1000Q643 1030 675 1030Q737 1030 804 960V948Q727 1021 675 1021Q652 1021 609 995Q659 979 748 890Q801 837 885 642Q992 616 1084 565Q1200 500 1200 435ZM1191 435Q1191 489 1090 549Q1000 602 888 628Q907 567 983 491Q1069 405 1140 405Q1191 405 1191 435ZM867 458Q867 474 850 474Q828 474 786 450Q817 441 839 441Q867 441 867 458ZM750 443Q733 451 712.0 461.5Q691 472 667 486Q661 490 649.0 500.0Q637 510 618 527Q568 574 552 599Q536 625 522.0 650.5Q508 676 496 702L454 711Q454 661 434 626Q460 612 484.5 596.0Q509 580 532 561L528 554Q487 589 428 617Q352 514 241 525Q238 455 256 425Q278 388 331 356Q396 318 463 318Q613 318 750 443ZM418 623Q362 635 348 635Q258 635 241 534Q266 533 290.0 536.0Q314 539 336.5 548.5Q359 558 379.5 576.0Q400 594 418 623ZM579 992Q579 998 560 1002Q540 1008 534 1008Q516 1008 516 992Q516 975 532 975Q550 975 579 992ZM442 728Q391 909 239 909Q221 909 198 896Q209 876 244 842Q296 791 349 767Q364 760 379.0 753.5Q394 747 410 741ZM442 717Q412 728 388.0 738.5Q364 749 345 758Q252 803 189 890Q175 890 163 860Q153 836 153 819Q153 715 264 671L262 665Q143 706 143 819Q143 871 181 897Q174 901 154 938Q146 952 141.0 964.0Q136 976 132 985Q123 979 114.0 973.0Q105 967 96 962Q11 899 11 786Q11 688 75 621Q132 563 231 534Q248 644 349 644Q376 644 424 632Q443 671 442 717ZM493 714Q475 762 466.0 785.0Q457 808 457 808Q422 889 368 942Q298 1009 208 1009Q173 1009 142 989Q174 920 190 903Q212 918 237 918Q321 918 379 860Q430 809 454 723Q485 714 493 714Z" />
</svg>
