<?xml version="1.0" encoding="utf-8"?>
<svg xmlns="http://www.w3.org/2000/svg" viewBox="0 0 940 1000">
  <path d="M1180 412Q1180 395 1154 392Q1100 371 1082 365Q1001 338 911 338Q752 338 628 422Q618 430 608.0 438.5Q598 447 587 455Q508 382 392 382Q232 382 144 514Q97 585 76 686Q59 715 49.5 732.0Q40 749 37 754Q9 809 9 895Q9 1029 93 1116Q178 1203 312 1203Q436 1203 540 1131Q638 1062 692 946Q708 948 718.0 949.0Q728 950 733 950Q792 950 842 888Q886 833 889 787Q889 789 887.5 783.5Q886 778 884 766Q867 832 834 878Q790 938 734 938Q728 938 698 932Q763 786 801.5 701.0Q840 616 853 591Q881 539 928 490Q1007 422 1120 422Q1129 422 1145.0 426.0Q1161 430 1168 430Q1180 430 1180 412ZM1130 406Q994 409 928 440Q888 459 855.5 482.5Q823 506 797 535Q752 588 709 681L608 904Q599 904 583 889Q595 834 595 805Q595 729 557 670Q546 652 506 611Q545 508 589 473Q603 489 615.5 508.5Q628 528 638 552L646 544Q623 494 596 464Q663 417 685 405Q792 349 911 349Q981 349 1059 371Q1126 389 1130 398ZM580 464Q544 490 494 604Q409 548 339 548Q253 548 197 576Q136 604 92 673Q126 566 156 521Q241 392 392 392Q455 392 517 422Q563 445 580 464ZM581 805Q581 840 569 877Q494 799 494 716Q494 696 496.0 674.0Q498 652 502 626Q581 699 581 805ZM562 892Q562 900 539 929Q463 1020 349 1020Q227 1020 154 914Q89 818 94 692Q124 640 153 617Q223 560 339 560Q403 560 490 617Q481 683 481 716Q481 810 562 892ZM601 919Q566 1015 496 1093Q408 1190 312 1190Q188 1190 104 1104Q21 1018 21 895Q21 795 82 700Q81 707 80.5 714.0Q80 721 80 729Q80 836 147 927Q225 1032 349 1032Q492 1032 575 901Q585 906 591.0 910.5Q597 915 601 919Z" />
</svg>
