<?xml version="1.0" encoding="utf-8"?>
<svg xmlns="http://www.w3.org/2000/svg" viewBox="0 0 1052 1000">
  <path d="M1149 314V307Q1111 286 1078 286Q973 286 900 382Q860 436 833.0 471.5Q806 507 792 527Q755 577 711.5 597.0Q668 617 603 619Q637 452 724 406Q755 419 777.0 425.0Q799 431 813 432Q848 434 848 401Q848 376 813 374Q783 373 732 391Q663 340 625.5 312.5Q588 285 580 280Q531 251 472 251Q362 251 282 324Q197 400 197 507Q197 514 197.5 520.5Q198 527 199 534Q185 539 170.5 543.5Q156 548 142 553Q-1 618 -1 796Q-1 894 69.0 958.0Q139 1022 238 1022Q391 1022 493 889Q557 804 594 662Q616 662 636 686Q656 709 658 732L669 910Q672 963 715 996Q756 1025 810 1025Q878 1025 930 976Q984 927 984 860Q984 815 957.5 787.5Q931 760 886 760Q873 760 873 769V770Q918 770 944.0 793.5Q970 817 970 860Q970 912 931 958Q891 1007 840 1007Q790 1007 756 931Q751 919 750 891Q750 881 750 866Q750 850 751 828Q752 797 752.5 779.5Q753 762 753 758Q753 704 699 675Q655 652 595 652L600 634Q651 643 693 643Q790 643 831 590Q847 568 873 506Q889 468 900.0 442.0Q911 416 918 403Q976 295 1078 295Q1101 295 1149 314ZM837 401Q837 420 811 418Q764 408 745 400Q783 389 811 387Q837 385 837 401ZM407 609Q371 625 322 625Q305 625 287.5 618.5Q270 612 255.0 601.0Q240 590 229.0 575.5Q218 561 213 544Q223 542 232.5 540.5Q242 539 253 539Q347 539 407 609ZM717 397Q654 426 590 496Q521 571 505 632Q460 801 423 870Q349 1010 238 1010Q148 1010 78 948Q10 886 10 796Q10 621 149 563Q162 559 175.0 555.0Q188 551 202 547Q213 583 248 610Q285 637 323 637Q340 637 388.0 628.0Q436 619 414 619Q436 648 436 716Q436 797 380 853Q325 908 244 908Q202 908 180.5 881.0Q159 854 159 812Q159 719 252 674L250 665Q204 684 175.5 723.5Q147 763 147 812Q147 858 172.5 889.0Q198 920 244 920Q314 920 373 874Q448 817 448 716Q448 653 425 612Q439 604 451.0 594.5Q463 585 474 575Q481 568 490.5 558.5Q500 549 513 535L506 527Q486 551 463.5 570.0Q441 589 418 603Q351 527 254 527Q231 527 211 531Q210 524 209.5 518.0Q209 512 209 505Q209 417 288 357Q361 301 451 301Q507 301 590 331Q672 361 717 397Z" />
</svg>
