<?xml version="1.0" encoding="utf-8"?>
<svg xmlns="http://www.w3.org/2000/svg" viewBox="0 0 978 1000">
  <path d="M910 783Q910 697 823 646L817 657Q894 714 894 783Q894 890 797 942Q720 983 603 983Q489 983 354 936Q422 845 446 796Q460 766 472.0 726.5Q484 687 492 636Q592 595 661 523Q742 439 742 342Q742 272 663 272Q625 272 579 308Q541 337 513 374Q466 436 453 464Q439 493 423.5 541.0Q408 589 392 656Q341 686 289 686Q205 686 149 621Q95 560 95 474Q95 362 179 290Q259 222 372 222Q380 222 401.5 224.0Q423 226 459 230Q427 212 372 212Q254 212 171 283Q85 357 85 474Q85 564 142 630Q200 696 289 696Q325 696 388 672Q359 777 340 815Q329 838 315.5 862.5Q302 887 288 912Q184 857 123 857Q81 857 47 876Q4 898 4 936Q4 983 54 1006Q91 1024 145 1024Q206 1024 301 968Q344 990 376.5 1004.5Q409 1019 432 1027Q501 1051 574 1051Q696 1051 797 980Q910 900 910 783ZM729 342Q729 416 645 507Q568 590 491 619Q491 526 533 418Q585 282 663 282Q729 282 729 342ZM271 945Q245 970 203 990Q161 1009 124 1009Q87 1009 55 992Q17 971 17 936Q17 910 47 890Q75 873 102 873Q160 873 271 945Z" />
</svg>
