<?xml version="1.0" encoding="utf-8"?>
<svg xmlns="http://www.w3.org/2000/svg" viewBox="0 0 1139 1000">
  <path d="M1234 332Q1163 302 1097 302Q1050 302 1004 312Q977 317 945 327Q904 339 923 339Q843 291 728 291Q546 291 460 392Q401 374 352 374Q210 374 105 485Q0 595 0 738Q0 868 86 948Q169 1024 302 1024Q414 1024 522 979Q650 925 688 836Q710 787 725.0 753.0Q740 719 749 699Q793 728 793 767Q793 778 792.0 794.5Q791 811 789 834Q787 856 786.0 872.5Q785 889 785 900Q785 956 834 992Q880 1024 937 1024Q989 1024 1024 1000Q1064 972 1064 921Q1064 872 1024 816L1016 822Q1052 884 1052 921Q1052 940 1044.5 956.5Q1037 973 1024.0 985.0Q1011 997 994.0 1003.5Q977 1010 958 1010Q920 1010 897.0 986.0Q874 962 874 924V832Q874 788 857 759Q852 751 839.5 736.5Q827 722 807 702Q906 689 969 647Q1049 593 1049 504Q1049 430 970 369Q947 351 943 348Q1010 311 1097 311Q1170 311 1232 338ZM976 489Q976 569 916 627Q858 685 777 685Q771 685 765.0 684.5Q759 684 753 683Q775 581 800 522Q852 398 923 357Q976 395 976 489ZM605 666Q567 682 528 682Q417 682 417 533Q417 475 461 407Q529 440 568 494Q610 553 610 624Q610 646 605 666ZM907 348Q754 434 692 575Q652 668 624.5 730.5Q597 793 583 827Q499 1010 302 1010Q171 1010 92 940Q8 867 8 738Q8 600 111 491Q215 381 352 381Q395 381 452 401Q406 454 406 533Q406 694 528 694Q572 694 605 678Q581 788 512 855Q435 929 330 929Q169 929 97 764Q82 764 82 759Q82 757 83 756Q154 938 330 938Q441 938 520 859Q595 786 617 674Q654 653 662 618L657 604Q652 635 619 660Q622 647 622 628Q622 576 598.0 525.0Q574 474 534 440Q516 425 469 396Q554 299 728 299Q842 299 907 348Z" />
</svg>
