<?xml version="1.0" encoding="utf-8"?>
<svg xmlns="http://www.w3.org/2000/svg" viewBox="0 0 710 1000">
  <path d="M696 384Q696 336 660 330Q633 325 613 342Q572 289 472 289Q357 289 263 359Q160 435 161 541Q102 581 70 619Q2 705 2 828Q2 964 98 1061Q196 1159 330 1159Q456 1159 549 1069V1061Q444 1148 330 1148Q198 1148 105 1054Q13 959 13 828Q13 712 75 629Q94 604 115.5 585.0Q137 566 163 553Q168 571 175.0 586.5Q182 602 192 615Q123 701 123 790Q123 882 188 947Q252 1010 346 1010Q449 1010 523 940Q598 870 598 769Q598 716 574 564Q582 564 636 499Q696 427 696 384ZM610 358Q617 371 617 387Q617 409 605 431Q589 458 571 459Q571 408 610 358ZM669 376Q669 459 573 547L571 472Q583 469 594.0 460.5Q605 452 612.5 440.5Q620 429 624.5 415.5Q629 402 629 389Q629 368 619 352Q622 351 630.0 346.5Q638 342 643 342Q669 342 669 376ZM604 346Q580 357 564 397Q550 433 550 462Q504 462 455.0 465.0Q406 468 352 475Q242 489 172 538Q175 430 284 358Q376 297 472 297Q561 297 604 346ZM549 472 544 568Q491 604 457 619Q441 602 427.0 590.5Q413 579 402 573Q374 559 333 559Q261 559 201 607Q184 587 173 548Q190 538 202.5 531.5Q215 525 223 520Q278 492 357 484Q457 474 549 472ZM445 625Q386 657 330 657Q243 657 208 616Q256 568 333 568Q401 568 445 625ZM543 631Q543 747 484 854Q413 982 307 982Q220 982 171 904Q134 846 133 790Q130 709 198 624Q235 667 330 667Q387 667 453 636Q469 668 469 699Q469 743 439.0 777.0Q409 811 367 811Q322 811 322 769Q322 738 378 733Q356 696 333 696Q306 696 288.0 716.5Q270 737 270 765Q270 795 292.5 815.0Q315 835 346 835Q394 835 438 798Q483 761 483 715Q483 668 463 630Q494 613 513.5 601.5Q533 590 543 583Z" />
</svg>
