<?xml version="1.0" encoding="utf-8"?>
<svg xmlns="http://www.w3.org/2000/svg" viewBox="0 0 597 1000">
  <path d="M1186 557Q1186 460 1117 398Q1050 339 952 339Q818 339 727 421Q688 455 633 543Q452 832 314 972Q422 803 422 720Q422 683 410 609Q398 534 398 496Q398 427 440 395Q445 396 449.5 396.5Q454 397 459 397Q506 397 506 371Q506 357 490 357Q467 357 436 383L360 357Q279 329 220 329Q133 329 72 372Q2 420 2 503Q2 548 28.5 583.0Q55 618 98 629Q87 615 78.0 605.5Q69 596 63 589Q34 552 34 510Q34 432 89 384Q142 337 220 337Q295 337 427 392Q380 421 353 502Q345 524 338.5 556.0Q332 588 325 630Q321 729 319 851Q319 897 307 925Q278 990 265 1021Q272 1024 283 1024Q429 872 537 718Q582 654 646 549Q684 489 753 437Q851 366 953 366Q1048 366 1110 413Q1177 465 1177 557Q1177 652 1109 734Q1039 819 944 819Q871 819 822.0 771.0Q773 723 773 651Q773 525 895 483V476Q895 471 861 489Q763 542 763 651Q763 727 815 779Q867 830 944 830Q1045 830 1117 743Q1186 661 1186 557ZM493 374Q493 389 463 389Q458 389 448 387Q467 368 483 368Q493 368 493 374Z" />
</svg>
