<?xml version="1.0" encoding="utf-8"?>
<svg xmlns="http://www.w3.org/2000/svg" viewBox="0 0 1049 1000">
  <path d="M1611 1095Q1611 990 1541 913Q1471 834 1367 834Q1293 834 1243 875Q1188 918 1188 990Q1188 1051 1227 1091Q1268 1132 1329 1132Q1339 1132 1339 1121Q1202 1103 1202 990Q1202 924 1253 885Q1300 850 1367 850Q1463 850 1531 925Q1599 999 1599 1095Q1599 1226 1505 1313Q1413 1401 1280 1401Q1109 1401 930 1282Q839 1221 778 1154Q788 1138 799 1110Q834 1025 859.5 964.0Q885 903 902 864Q976 680 1086 540Q1237 347 1385 347Q1528 347 1545 467Q1545 467 1556 473Q1559 339 1367 339Q1130 339 929 666Q921 680 903.0 714.5Q885 749 859 805Q812 903 786 941Q744 1001 702 1001Q660 1001 660 942Q660 909 670 875Q687 838 728 775Q749 743 763.5 718.5Q778 694 786 677Q813 620 813 567Q813 482 753.0 422.0Q693 362 608 362Q553 362 514 373Q510 374 492.5 380.5Q475 387 443 399Q424 337 390 304Q338 255 236 255Q2 255 2 389Q2 447 59 484Q108 518 169 518Q214 518 252 505Q320 482 435 414Q438 452 428 494Q408 547 396 570L404 572Q452 495 444 410Q532 369 608 369Q641 369 668.5 380.0Q696 391 716.0 410.5Q736 430 747.0 457.5Q758 485 758 518Q758 570 718 634Q668 712 643 751Q603 818 603 887Q603 937 622 971Q646 1012 692 1012Q728 1012 772 971Q787 956 834 900Q802 1061 786 1101Q775 1125 765 1139Q736 1112 716.5 1094.5Q697 1077 688 1069Q633 1021 566 990Q483 951 397 951Q279 951 188 1008Q83 1076 83 1186Q83 1297 189 1361Q281 1417 397 1417Q522 1417 622 1347Q715 1280 773 1164Q1035 1412 1280 1412Q1418 1412 1514 1322Q1611 1232 1611 1095ZM433 403Q249 509 169 509Q109 509 63 479Q9 445 9 389Q9 261 236 261Q396 261 433 403ZM759 1149Q721 1220 666 1269Q553 1370 397 1370Q298 1370 211 1327Q102 1275 102 1186Q102 1077 199 1014Q282 961 397 961Q516 961 622 1031Q647 1048 681.0 1077.0Q715 1106 759 1149Z" />
</svg>
