<?xml version="1.0" encoding="utf-8"?>
<svg xmlns="http://www.w3.org/2000/svg" viewBox="0 0 933 1000">
  <path d="M1153 1253Q1153 1172 1049 1128Q971 1094 876 1094Q788 1094 683 1134Q620 1159 574.5 1177.0Q529 1195 498 1208Q396 1248 324 1248Q184 1248 97 1149Q14 1054 14 913Q14 736 145 607Q277 478 454 478Q474 478 500.0 479.0Q526 480 557 482Q638 487 638 495Q609 512 577.5 538.5Q546 565 513 602Q409 718 409 837Q409 966 504 1013Q545 1069 601 1069Q706 1069 813 925L805 916Q696 1055 601 1055Q563 1055 538 1024Q543 1025 547.5 1025.5Q552 1026 557 1026Q654 1026 743 930Q832 832 832 735Q832 643 753 643Q639 643 557 758Q487 855 487 948Q487 953 487 957Q487 961 488 965Q465 942 466 905Q468 850 503 778Q523 736 546.0 701.0Q569 666 595 637Q668 558 724 511Q794 521 842.0 525.5Q890 530 916 530Q972 530 1017 512Q1077 488 1077 439Q1077 381 976 381Q834 381 651 483Q650 484 586 476Q511 467 454 467Q270 467 136 598Q3 728 3 913Q3 1061 88 1158Q177 1259 324 1259Q405 1259 504 1219Q564 1194 609.0 1176.0Q654 1158 684 1145Q786 1105 876 1105Q959 1105 1039 1139Q1141 1183 1141 1253Q1141 1273 1126 1301Q1127 1303 1131 1307Q1153 1276 1153 1253ZM1066 439Q1066 519 916 519Q866 519 745 501Q891 392 976 392Q1066 392 1066 439ZM798 728Q798 801 721 901Q639 1007 556 1007Q535 1007 515 994Q504 964 504 942Q504 856 574 762Q649 661 732 661Q798 661 798 728Z" />
</svg>
