<?xml version="1.0" encoding="utf-8"?>
<svg xmlns="http://www.w3.org/2000/svg" viewBox="0 0 852 1000">
  <path d="M981 387Q932 335 827 335Q765 335 716 351Q602 215 407 215Q243 215 151 310Q71 393 71 512Q71 519 71 526Q71 532 72 539Q58 559 49.5 572.5Q41 586 37 594Q7 648 7 713Q7 764 39 831L48 825Q19 749 19 713Q19 627 75 556Q96 636 144 682Q197 734 276 734Q332 734 377 695Q422 655 422 600Q422 531 364 489Q311 451 240 451Q165 451 83 526Q75 416 150 331Q240 227 407 227Q553 227 659 316Q692 344 693 353L651 377Q524 452 416 666Q393 713 347 834Q317 916 295 929Q271 913 256.0 903.5Q241 894 235 891Q183 863 137 863Q101 863 73 880Q42 901 42 936Q42 984 85 1006Q120 1026 171 1026Q249 1026 318 978Q386 1025 465 1027Q601 1029 702 881Q795 746 795 605Q795 465 725 359Q801 347 827 347Q879 347 906 357Q931 364 977 395ZM743 524Q743 674 656 825Q555 998 416 998Q396 998 335 963Q363 940 380.5 924.0Q398 908 406 899Q453 843 486 750Q500 707 510.0 675.5Q520 644 527 622Q591 426 704 372Q719 380 733 443Q743 492 743 524ZM410 600Q410 650 368 686Q327 722 276 722Q199 722 148 669Q103 623 85 543Q162 463 240 463Q308 463 355 497Q410 536 410 600ZM279 942Q203 1009 147 1009Q113 1009 86.0 989.0Q59 969 59 936Q59 909 77.0 892.5Q95 876 122 876Q212 878 279 942Z" />
</svg>
