<?xml version="1.0" encoding="utf-8"?>
<svg xmlns="http://www.w3.org/2000/svg" viewBox="0 0 973 1000">
  <path d="M900 457Q900 406 858 370Q817 337 766 337Q609 337 577 492Q449 477 391 477Q256 477 145 524Q0 585 0 706Q0 737 16 768L28 760Q25 756 19 733Q13 711 13 705Q13 592 155 534Q263 490 391 490Q473 490 577 508Q587 530 596.5 551.5Q606 573 615 594Q608 593 601 593Q595 593 588 593Q490 593 429 653Q367 713 367 810Q367 919 443 977Q512 1031 623 1031Q722 1031 792 961Q864 891 864 793Q864 744 838 710Q810 673 762 673Q696 673 641 727Q585 780 585 845Q585 864 591.0 881.0Q597 898 608.5 911.0Q620 924 635.5 931.5Q651 939 669 939Q739 939 769 868Q790 818 786 760H774Q774 814 759 854Q733 925 669 925Q638 925 618.5 901.0Q599 877 599 845Q599 786 651 737Q704 687 762 687Q805 687 829 720Q850 749 850 793Q850 884 782 949Q715 1013 623 1013Q550 1013 504 950Q462 892 462 817Q462 749 509 691Q557 633 624 633Q649 633 669 644Q689 670 709 667Q721 666 721 655Q721 645 704 636Q683 625 682 622Q666 600 663 541Q726 564 766 564Q814 564 855 535Q900 504 900 457ZM888 457Q888 505 849 530Q815 552 766 552Q712 552 664 522Q660 515 660 502Q660 460 699 418Q742 372 798 372Q834 372 861.0 396.5Q888 421 888 457Z" />
</svg>
