<?xml version="1.0" encoding="utf-8"?>
<svg xmlns="http://www.w3.org/2000/svg" viewBox="0 0 1026 1000">
  <path d="M1424 421Q1374 499 1302 499Q1234 499 1150 451Q1098 422 1059.5 399.5Q1021 377 995 362Q902 314 794 314Q668 314 552 412Q468 370 390 370Q227 370 117 483Q8 595 8 758Q8 927 114 1036Q221 1146 390 1146Q481 1146 580 1105Q682 1062 738 994Q801 914 873 650L933 659Q927 747 924 760Q916 808 893 808Q882 808 865 801L858 808Q874 824 892 824Q987 824 977 661Q998 658 1017.0 642.0Q1036 626 1036 606Q1036 572 1004 572Q959 572 938 640L879 629Q919 532 966 509Q974 505 991.5 501.0Q1009 497 1037 492Q1084 485 1088 479V475Q1002 478 961 489Q914 503 869 541Q847 566 831.5 584.5Q816 603 807 616L767 608L762 623L800 631Q704 890 672 956Q650 1000 609 1041Q512 1136 390 1136Q234 1136 135 1023Q40 916 40 758Q40 608 138 496Q242 380 390 380Q475 380 544 422Q530 440 515.0 458.0Q500 476 485 494Q434 571 434 647Q434 709 463 750Q496 795 557 795Q564 795 570.5 794.5Q577 794 584 793V782Q578 783 572.0 783.5Q566 784 560 784Q504 784 473 742Q445 705 445 647Q445 598 481 526Q518 451 560 431Q599 461 630 512Q675 586 675 668Q675 771 607 860Q534 957 434 957Q380 957 333 919Q284 879 284 824Q284 787 297 751Q297 745 290 737Q273 793 273 824Q273 883 325 926Q374 968 434 968Q537 968 614 867Q686 774 686 668Q686 579 636 499Q599 439 572 425Q636 365 794 365Q893 365 1025 406Q1055 415 1159 469Q1236 509 1302 509Q1339 509 1379 484Q1424 456 1424 421ZM1019 601Q1019 616 1005.5 627.0Q992 638 977 638Q975 638 975 635Q975 625 985 608Q995 590 1004 590Q1019 590 1019 601Z" />
</svg>
