<?xml version="1.0" encoding="utf-8"?>
<svg xmlns="http://www.w3.org/2000/svg" viewBox="0 0 913 1000">
  <path d="M1367 1059H1357Q1348 1106 1319 1145Q1271 1206 1181 1206Q1105 1206 1002 1143Q896 1079 823.5 1037.5Q751 996 712 977Q782 907 879 907L877 897Q833 896 787 915Q735 938 703 973L680 960Q706 912 750.5 837.0Q795 762 859 657L849 653L819 695Q788 681 774 681Q729 681 630 945Q566 932 526 930Q494 928 441 933Q442 904 444.5 882.0Q447 860 451 843Q459 811 486 761Q559 627 667 545Q715 553 788 544Q867 535 938 510Q1052 473 1052 426Q1052 396 1014 379Q987 366 951 366Q776 366 568 519Q458 498 397 498Q227 498 113 612Q0 727 0 897Q0 1079 126 1185Q125 1190 125 1194Q125 1199 125 1204Q125 1276 172 1323Q218 1371 291 1371Q434 1371 547 1224Q595 1161 630 1077L703 986Q734 1000 777.0 1024.5Q820 1049 877.0 1084.0Q934 1119 976.0 1143.5Q1018 1168 1047 1182Q1115 1216 1181 1216Q1330 1216 1367 1059ZM1038 426Q1038 464 930 498Q846 526 788 530Q755 533 675 533Q862 387 975 387Q997 387 1015 396Q1038 407 1038 426ZM694 982 641 1049 675 972ZM615 957Q548 1006 505 1006Q458 1006 444 947Q470 944 491.0 942.5Q512 941 526 942Q588 950 615 957ZM555 530Q507 581 476.5 618.0Q446 655 430 679Q373 766 373 860Q373 883 390 945Q299 972 243 1018Q150 1093 128 1173Q89 1140 57 1083Q9 998 9 897Q9 732 120 619Q231 507 397 507Q420 507 459.0 513.0Q498 519 555 530ZM630 963Q612 1059 597 1095Q586 1110 563.0 1128.0Q540 1146 506 1168Q405 1231 315 1231Q232 1231 138 1181Q160 1096 249 1024Q309 976 394 954Q446 1017 506 1017Q544 1017 630 963ZM598 1110Q598 1127 564 1182Q454 1362 291 1362Q212 1362 167 1301Q135 1257 135 1211Q135 1207 135 1203Q135 1199 136 1194Q146 1205 196 1221Q259 1241 315 1241Q446 1241 598 1110Z" />
</svg>
