<?xml version="1.0" encoding="utf-8"?>
<svg xmlns="http://www.w3.org/2000/svg" viewBox="0 0 789 1000">
  <path d="M1032 391Q1031 390 1030.0 383.0Q1029 376 1025 373Q998 358 930 347Q874 338 830 338Q643 338 539 433Q488 481 469 538Q397 484 310 484Q157 484 73 595Q38 643 20 706Q16 683 14.0 665.0Q12 647 12 634Q12 514 97 423Q183 331 302 331Q352 331 402 353L404 344Q359 322 303 322Q179 322 91.0 416.0Q3 510 3 634Q3 695 12 741Q12 887 113 965Q195 1027 303 1027Q444 1027 530.0 964.5Q616 902 662 767Q733 753 780 702Q791 689 802.0 671.0Q813 653 823 629Q839 593 839 581L830 577Q803 661 773 692Q763 702 715 728Q666 753 666 752Q666 729 688 669Q764 458 912 409Q964 393 1032 391ZM1014 385Q974 387 945.0 389.5Q916 392 898 396Q837 406 791 437Q696 499 635 618Q627 635 613.0 669.0Q599 703 579 756Q545 740 530 729Q526 629 501 581L479 547Q511 444 619 391Q710 346 830 346Q897 346 956 361Q1008 374 1014 385ZM519 712Q490 664 485 640Q477 596 476 560Q501 596 512 644Q515 667 516.5 684.0Q518 701 519 712ZM519 734Q488 814 461 847Q389 937 264 937Q176 937 112 876Q56 823 24 734Q81 493 310 493Q400 493 465 549Q466 610 474 643Q484 689 519 734ZM575 768Q544 846 466 927Q377 1016 303 1016Q184 1016 108.0 947.0Q32 878 23 760Q61 838 85 865Q155 947 264 946Q460 945 528 742Q562 764 575 768Z" />
</svg>
