<?xml version="1.0" encoding="utf-8"?>
<svg xmlns="http://www.w3.org/2000/svg" viewBox="0 0 1121 1000">
  <path d="M1460 342Q1362 348 1299 371Q1282 378 1251.0 393.5Q1220 409 1175 434Q956 557 749 857Q785 746 788 722Q790 709 790 691Q790 672 789.0 646.0Q788 620 788.5 601.5Q789 583 791 570Q804 461 844 408Q854 413 864 413Q887 413 887 396Q887 381 866 381Q848 381 827 393Q662 339 631 339Q527 339 463 378Q386 425 386 522Q386 576 417 610Q450 648 502 648Q541 648 572 602H566Q545 623 515 623Q471 623 443 586Q418 552 418 507Q418 459 444 421Q495 347 631 347Q665 347 818 399Q755 437 689 539Q666 573 628.0 639.0Q590 705 536 804Q420 1013 278 1013Q154 1013 74 933Q7 866 7 785Q7 687 71 614Q137 536 233 536Q305 536 360 580Q417 627 417 699Q417 765 367.0 821.0Q317 877 251 877Q199 877 170.5 841.5Q142 806 142 752Q142 719 163 668L151 665Q131 722 131 752Q131 811 161 848Q192 888 251 888Q321 888 374 829Q428 769 428 699Q428 622 368 572Q310 525 233 525Q131 525 64 604Q-3 681 -3 785Q-3 889 87 959Q172 1024 278 1024Q356 1024 429 987Q503 950 529 899Q561 832 584.0 782.5Q607 733 622 699Q656 627 686.0 577.5Q716 528 743 500Q699 590 689 650Q677 718 677 878Q677 920 671 939Q654 991 644 1013Q644 1018 649 1026Q660 1013 686.0 978.5Q712 944 752 886Q798 819 833.0 770.5Q868 722 893 692Q930 647 972.0 606.0Q1014 565 1063 527Q851 795 851 917Q851 959 870 987Q892 1018 932 1018Q993 1018 1045 906Q1035 908 1034 908Q1028 926 1006 957Q973 1003 946 1003Q914 1003 914 956Q914 897 983 751Q1009 696 1035.5 646.5Q1062 597 1090 552Q1143 468 1184 444Q1222 422 1253.5 406.5Q1285 391 1310 382Q1342 371 1379.0 363.5Q1416 356 1459 353Z" />
</svg>
