<?xml version="1.0" encoding="utf-8"?>
<svg xmlns="http://www.w3.org/2000/svg" viewBox="0 0 1041 1000">
  <path d="M1355 316Q1355 272 1289 272Q1221 272 1148 353Q1125 342 1084.0 327.5Q1043 313 983 295Q827 247 753 247Q615 247 555 274Q491 302 444 372Q397 441 393 511Q376 509 359.0 507.5Q342 506 326 506Q192 506 96 603Q0 699 0 833Q0 953 83 1022Q161 1088 284 1088Q494 1088 641 805Q758 576 800 490Q786 583 785 640Q784 660 786.0 688.5Q788 717 792 754Q796 793 798.0 821.5Q800 850 800 868Q800 885 780 960Q761 1030 761 1000Q761 1011 774 1011Q784 1011 815 965L887 850Q972 714 1022 616Q1053 556 1075.5 511.5Q1098 467 1113 437Q1124 417 1134.0 399.0Q1144 381 1154 365Q1202 382 1247 382Q1284 382 1315 368Q1355 349 1355 316ZM1346 316Q1346 345 1309 360Q1279 371 1247 371Q1220 371 1160 356Q1218 281 1289 281Q1306 281 1325 289Q1346 300 1346 316ZM1143 362Q1122 395 1104 430Q994 648 993 649Q969 695 934.0 754.5Q899 814 851 889Q885 793 885 751Q885 730 880.0 698.5Q875 667 865.0 624.0Q855 581 850.0 549.5Q845 518 845 497Q845 438 879 394Q901 366 960 317Q867 286 806 286Q724 286 637 323Q527 368 527 437Q527 472 567 490L569 481Q537 461 537 437Q537 375 645 331Q732 295 806 295Q854 295 938 322Q822 423 788 490Q733 598 694.0 676.0Q655 754 630 805Q487 1080 284 1080Q165 1080 89 1016Q8 949 8 833Q8 701 100 607Q193 514 326 514Q337 514 353.5 515.5Q370 517 393 521Q391 583 432 633Q472 682 535 691Q535 800 483 874Q466 898 442.5 919.0Q419 940 388 957Q326 992 270 992Q207 992 166 948Q126 905 126 839Q126 759 182 691Q239 622 317 622Q368 622 405 659Q443 695 443 745Q443 772 420 823Q421 823 431 821Q453 778 453 745Q453 688 413 651Q372 613 317 613Q233 613 174 684Q116 754 116 839Q116 908 159.0 954.0Q202 1000 270 1000Q332 1000 393 966Q424 949 448.0 926.5Q472 904 491 878Q524 831 534 790Q544 754 544 692Q690 672 690 538Q690 514 672 464L663 466Q680 511 680 538Q680 663 542 679Q522 609 499 579Q485 560 462.5 545.0Q440 530 411 517Q438 366 567 304Q667 256 753 256Q856 256 1143 362ZM533 679Q492 670 454 634Q408 589 411 527Q469 551 495 588Q513 613 533 679Z" />
</svg>
