<?xml version="1.0" encoding="utf-8"?>
<svg xmlns="http://www.w3.org/2000/svg" viewBox="0 0 600 1000">
  <path d="M570 524Q570 473 541 429Q508 380 459 380Q377 380 301 483Q231 580 231 666Q231 702 250.5 727.0Q270 752 305 752Q372 752 424 685Q473 623 473 554Q473 530 460.0 507.5Q447 485 425 485Q399 485 360 524L367 531Q398 495 425 495Q443 495 453 517Q462 535 462 554Q462 605 419 667Q369 741 305 741Q274 741 257 718Q242 699 242 666Q242 584 309 490Q381 389 459 389Q515 389 515 470Q515 589 407 785Q358 873 305 931Q227 1017 158 1017Q119 1017 96.5 987.5Q74 958 74 918Q74 743 239 513Q284 451 318 424Q335 410 360.0 394.5Q385 379 420 362H378Q298 373 207 456Q122 533 66 631Q0 745 0 842Q0 915 41 968Q86 1023 158 1023Q255 1023 353 941Q433 874 491 774Q518 728 543 652Q570 573 570 524Z" />
</svg>
