<?xml version="1.0" encoding="utf-8"?>
<svg xmlns="http://www.w3.org/2000/svg" viewBox="0 0 1046 1000">
  <path d="M1259 370Q1185 337 1100 337Q1031 337 941 369Q849 316 719 316Q560 316 470 410Q413 385 357 385Q212 385 105 495Q0 605 0 750Q0 885 90 961Q175 1033 312 1033Q441 1033 556 968Q694 888 741 736Q769 739 812 739Q905 739 976 689Q1056 633 1056 544Q1056 503 1031 460Q1011 426 991 399Q960 356 960 379Q1032 345 1100 345Q1182 345 1257 376ZM984 513Q984 593 925 655Q866 715 785 715Q777 715 767 715Q758 715 747 714L816 532Q849 445 938 393Q984 427 984 513ZM612 682Q586 696 560 696Q501 696 462 653Q424 609 424 550Q424 501 473 424Q544 456 585 528Q600 553 608 613Q614 657 612 682ZM917 379Q835 424 766 501Q736 534 696 597L627 741Q563 876 539 900Q423 1016 281 1016Q160 1016 84 944Q8 871 8 750Q8 611 112 502Q217 393 357 393Q404 393 464 419Q413 493 413 550Q413 614 454 660Q494 705 560 705Q586 705 610 695Q595 755 555 808Q475 915 344 915Q246 915 177 852Q108 788 108 691Q108 670 126 616L116 619Q98 655 98 691Q98 796 170 860Q238 924 344 924Q548 924 624 689Q651 659 662 642L659 627Q648 644 639.5 656.0Q631 668 624 675Q628 527 543 454Q521 435 479 415Q570 324 719 324Q847 324 917 379Z" />
</svg>
