<?xml version="1.0" encoding="utf-8"?>
<svg xmlns="http://www.w3.org/2000/svg" viewBox="0 0 664 1000">
  <path d="M640 503Q640 431 584.0 377.0Q528 323 457 323Q370 323 284 397Q196 473 196 559Q196 605 218 633Q244 665 286 665Q343 665 387 597Q427 536 427 475Q427 451 414.0 433.5Q401 416 378 416Q290 416 256 563Q258 574 264 580Q268 552 276.5 528.0Q285 504 298 482Q331 427 378 427Q418 427 418 475Q418 528 380 589Q336 655 286 655Q259 655 240 627Q224 602 224 574Q224 530 259 472Q300 405 339 373Q391 331 457 331Q505 331 536.0 357.5Q567 384 567 430Q567 483 531 571Q500 648 477 671Q421 749 331 839Q312 858 292.5 876.5Q273 895 253 913Q249 913 200 898Q159 886 123 886Q83 886 47 903Q4 924 4 962Q4 987 28 1002Q50 1016 76 1016Q149 1016 228 970Q259 984 274.5 991.0Q290 998 290 998Q345 1018 406 1017Q464 1015 500 991Q543 963 543 907Q543 859 495 836L493 849Q515 863 518 865Q532 879 532 907Q532 937 510.5 956.5Q489 976 459 976Q406 976 298 938Q368 890 423.5 842.5Q479 795 522 747Q640 617 640 503ZM207 955Q141 1009 76 1009Q55 1009 36.0 995.5Q17 982 17 962Q17 944 32.5 932.0Q48 920 67 920Q111 920 207 955Z" />
</svg>
