<?xml version="1.0" encoding="utf-8"?>
<svg xmlns="http://www.w3.org/2000/svg" viewBox="0 0 990 1000">
  <path d="M1416 397Q1363 408 1335 408Q1270 408 1186 366Q1084 314 1035 289Q946 247 859 247Q778 247 676 294Q574 182 410 182Q230 182 109 324Q9 442 2 570L11 571Q16 510 56 431Q175 192 410 192Q564 192 660 300Q618 319 554 406Q480 382 447 382Q295 382 196 486Q98 590 98 741Q98 888 199 989Q302 1090 447 1090Q599 1090 712 1010Q838 921 885 757Q924 600 936 541Q960 428 1137 405L1139 394Q1022 405 965 436Q885 480 855 566Q823 661 800.0 731.0Q777 801 762 849Q726 954 638 1017Q552 1081 447 1081Q307 1081 207.0 981.0Q107 881 107 741Q107 595 204 495Q302 394 447 394Q468 394 548 418Q497 495 497 562Q497 642 540 698Q587 760 663 760Q690 760 708 754Q689 822 649 881Q641 892 623.0 913.5Q605 935 576 966L584 972Q694 877 727 741Q763 701 768 694Q800 645 800 586Q800 513 753 416Q722 352 692 316Q764 298 859 298Q937 298 1100 360Q1261 421 1319 421Q1356 421 1403 411Q1406 408 1409.0 404.5Q1412 401 1416 397ZM786 586Q786 669 729 721Q730 709 730.5 698.0Q731 687 731 676Q731 581 693.0 519.0Q655 457 570 413Q593 386 619.5 363.0Q646 340 677 321Q687 331 701.0 354.0Q715 377 734 412Q786 510 786 586ZM712 737Q685 748 663 748Q592 748 549 687Q510 632 510 559Q510 529 531 481Q547 441 564 424Q716 504 716 677Q716 691 715.0 706.0Q714 721 712 737Z" />
</svg>
