<?xml version="1.0" encoding="utf-8"?>
<svg xmlns="http://www.w3.org/2000/svg" viewBox="0 0 865 1000">
  <path d="M1543 577Q1543 483 1454 429Q1378 385 1278 385Q1195 385 1146 398Q1108 407 999 449Q930 395 882 377Q831 358 747 358H701V364H755Q835 364 971 461Q769 591 649 782Q625 820 607.0 849.0Q589 878 578 898Q504 1008 438 1008Q401 1008 401 962Q401 920 449 852Q478 812 500.5 782.0Q523 752 538 732Q558 704 570.0 687.5Q582 671 586 664Q603 632 603 591Q603 538 587.0 496.0Q571 454 541.0 424.5Q511 395 468.5 379.5Q426 364 372 364Q205 364 99 464Q5 551 5 655Q5 725 53 771Q102 818 170 818Q271 818 336 776L333 770Q264 809 170 809Q106 809 60 764Q14 718 14 655Q14 556 107 470Q211 373 372 373Q453 373 501 412Q554 454 554 533Q554 569 503 641Q471 686 447.0 719.0Q423 752 407 774Q356 851 356 913Q356 952 378 983Q402 1019 438 1019Q499 1019 580 921Q580 1019 639 1019Q712 1019 765 950V932Q709 1001 654 1001Q639 1001 639 985Q639 943 750 755Q835 610 995 485Q1190 692 1392 692Q1444 692 1491 662Q1543 628 1543 577ZM1533 577Q1533 623 1484 654Q1441 682 1392 682Q1239 682 1017 466Q1162 395 1278 395Q1374 395 1446 437Q1533 487 1533 577Z" />
</svg>
