<?xml version="1.0" encoding="utf-8"?>
<svg xmlns="http://www.w3.org/2000/svg" viewBox="0 0 897 1000">
  <path d="M1500 565Q1500 464 1429 401Q1361 341 1259 341Q1175 341 1084 396Q993 450 951 523Q859 683 765 800Q729 845 694.5 885.5Q660 926 626 964Q652 919 669.0 890.0Q686 861 693 847Q727 776 727 719Q727 702 724.0 676.0Q721 650 716 616Q711 581 708.0 555.0Q705 529 705 512Q705 460 744 392Q694 436 678 467Q571 671 483 788Q466 811 441.5 838.5Q417 866 386 898Q366 918 346.0 937.5Q326 957 306 977Q423 790 423 719Q423 678 411 597Q399 515 399 473Q399 447 447 397Q464 399 484 393Q510 385 510 371Q510 358 486 358Q468 358 443 382Q446 381 372 353Q291 323 234 323Q139 323 77 363Q3 411 3 499Q3 583 96 619Q97 616 96 613Q63 587 50 569Q33 543 33 508Q33 424 92 374Q147 329 234 329Q318 329 437 389Q407 427 390.0 449.5Q373 472 369 479Q327 548 327 617Q327 711 323.5 778.5Q320 846 313 889Q307 925 261 1012Q261 1023 272 1023Q287 1023 358 951Q444 862 485 806Q570 691 629 593Q629 689 629 742Q629 794 628 804Q624 892 602 940Q570 1009 570 1016Q570 1022 579 1022Q603 1022 733 859Q790 787 832.0 730.5Q874 674 902 632Q996 490 1060 438Q1149 365 1280 365Q1371 365 1429.0 420.0Q1487 475 1487 565Q1487 657 1423 736Q1356 821 1266 821Q1187 821 1132 774Q1079 726 1079 647Q1079 536 1209 481L1206 472Q1067 526 1067 647Q1067 729 1125.0 781.0Q1183 833 1266 833Q1363 833 1434 746Q1500 665 1500 565ZM497 373Q497 387 474 387Q470 387 465.5 386.5Q461 386 456 385Q469 367 486 366Q497 364 497 373Z" />
</svg>
