<?xml version="1.0" encoding="utf-8"?>
<svg xmlns="http://www.w3.org/2000/svg" viewBox="0 0 734 1000">
  <path d="M950 352 941 346Q940 345 919 350Q895 356 874 365Q782 403 619 569Q597 403 519 381Q506 377 478 380Q450 355 417 355Q362 355 316 384Q298 395 276.0 416.0Q254 437 228 466L233 472Q262 441 284.5 420.5Q307 400 323 390Q365 363 416 363Q444 363 467 385Q262 473 208 649Q123 678 66 744Q3 816 3 901Q3 958 43 995Q83 1031 140 1031Q222 1031 325 952Q348 935 386.0 900.0Q424 865 478 812Q481 841 484.0 865.0Q487 889 489 907Q506 1026 611 1026Q638 1026 670 1011Q668 1005 667 1002Q635 1017 611 1017Q559 1017 559 931Q559 887 580 798Q601 710 601 674Q694 562 739.5 507.0Q785 452 785 452Q839 389 907 364Q939 353 950 352ZM483 445Q483 514 440 585Q399 652 341 695Q312 645 245 645Q238 645 231.5 645.5Q225 646 218 647Q245 562 317 493Q384 429 473 394Q483 418 483 445ZM332 701Q291 727 262 727Q214 727 214 673Q214 667 216 657Q223 656 229.5 655.5Q236 655 243 655Q307 655 332 701ZM524 488 505 691Q421 792 372.5 849.0Q324 906 310 920Q213 1017 140 1017Q88 1017 50 985Q12 952 12 901Q12 822 72 751Q127 689 207 660Q205 670 205 677Q205 702 221.0 719.5Q237 737 262 737Q298 737 337 710Q338 715 338.5 719.5Q339 724 339 729Q339 788 273.0 860.0Q207 932 149 932Q126 932 111.0 917.0Q96 902 96 879Q96 840 149 779L143 775Q87 828 87 879Q87 903 106.0 922.0Q125 941 149 941Q213 941 282 869Q351 796 351 731Q351 717 346 704Q410 662 451 590Q492 517 492 444Q492 420 484 393Q524 434 524 488Z" />
</svg>
