<?xml version="1.0" encoding="utf-8"?>
<svg xmlns="http://www.w3.org/2000/svg" viewBox="0 0 676 1000">
  <path d="M707 501Q707 430 648 383Q595 341 520 339Q446 338 355 387Q338 384 328 384Q292 384 217 408Q172 422 121 468Q43 539 4 648Q4 645 11 652Q43 560 99 500Q195 395 324 395Q329 395 334 395Q339 395 344 396Q344 392 279 442Q92 584 92 717Q92 767 125.0 804.0Q158 841 208 841Q307 841 379 719Q443 613 443 507Q443 432 371 391Q392 377 434.0 363.0Q476 349 499 349Q550 349 578.5 381.5Q607 414 607 465Q607 575 485 732Q432 800 302 930Q134 935 134 986Q134 1013 173 1013Q207 1013 326 952Q341 952 351 974Q362 996 362 1011Q362 1025 352 1052L308 1053Q289 1054 276 1054Q264 1054 256 1054Q157 1054 52 1111Q-69 1177 -69 1267Q-69 1319 -19 1345Q18 1364 77 1364Q178 1364 282 1283Q396 1194 414 1075L481 1088L482 1079L413 1063Q411 1027 398 996Q381 959 341 942Q419 887 477.0 840.0Q535 793 573 755Q707 619 707 501ZM434 507Q434 606 372 712Q301 832 208 832Q164 832 132 797Q101 763 101 717Q101 568 358 397Q434 428 434 507ZM278 948Q198 1001 171 1001Q152 1001 152 987Q152 963 203 952Q213 950 224.5 949.0Q236 948 250 947Q262 946 269.0 946.5Q276 947 278 948ZM348 1064Q326 1162 205 1242Q93 1315 -9 1315Q-62 1315 -62 1267Q-62 1199 31 1134Q134 1062 271 1062Q293 1062 312.0 1062.5Q331 1063 348 1064Z" />
</svg>
